<?xml version="1.0" encoding="UTF-8" standalone="no"?>
<!DOCTYPE svg PUBLIC "-//W3C//DTD SVG 1.1//EN" "http://www.w3.org/Graphics/SVG/1.1/DTD/svg11.dtd">
<svg width="100%" height="100%" viewBox="0 0 893 964" version="1.1" xmlns="http://www.w3.org/2000/svg" xmlns:xlink="http://www.w3.org/1999/xlink" xml:space="preserve" xmlns:serif="http://www.serif.com/" style="fill-rule:evenodd;clip-rule:evenodd;stroke-linejoin:round;stroke-miterlimit:2;">
    <g transform="matrix(11.873,0,0,11.873,-1304.34,-152.128)">
        <path d="M181.017,46.293L147.442,65.172L111.557,44.993L109.858,45.938L109.858,60.616L147.442,81.765L181.015,62.874L181.017,70.664L147.442,89.558L111.57,69.372L109.858,70.324L109.858,72.811L147.442,93.959L185.026,72.811L185.026,58.129L183.325,57.183L147.442,77.364L113.867,58.482L113.869,50.722L147.442,69.586L185.026,48.438L185.026,33.967L183.135,32.916L147.442,52.998L115.645,35.106L147.442,17.214L173.638,31.954L175.971,30.64L175.971,28.875L147.442,12.813L109.858,33.971L109.858,36.241L147.442,57.393L181.015,38.499L181.017,46.293Z" style="fill:rgb(239,61,44);fill-rule:nonzero;"/>
    </g>
</svg>
